<mxfile host="www.draw.io" modified="2019-12-10T06:37:30.677Z" agent="Mozilla/5.0 (Windows NT 6.1; Win64; x64) AppleWebKit/537.36 (KHTML, like Gecko) Chrome/74.0.3729.169 Safari/537.36" etag="I_nn-d1CZWQwogTRZrBm" version="12.3.9" type="github" pages="1">
  <diagram id="oIIxbdemw8THBCae0O9m" name="第 1 页">
    <mxGraphModel dx="813" dy="1604" grid="1" gridSize="10" guides="1" tooltips="1" connect="1" arrows="1" fold="1" page="1" pageScale="1" pageWidth="827" pageHeight="1169" math="0" shadow="0">
      <root>
        <mxCell id="0"/>
        <mxCell id="1" parent="0"/>
        <mxCell id="MlHlvLZix1t-NmI1T0BR-19" style="edgeStyle=orthogonalEdgeStyle;rounded=0;orthogonalLoop=1;jettySize=auto;html=1;fillColor=#0050ef;strokeColor=#000000;fontSize=3;fontStyle=1;labelBackgroundColor=#FFFFFF;fontColor=#000000;" parent="1" source="MlHlvLZix1t-NmI1T0BR-1" edge="1">
          <mxGeometry relative="1" as="geometry">
            <mxPoint x="150" y="80" as="targetPoint"/>
          </mxGeometry>
        </mxCell>
        <mxCell id="XqUJyj3r2s2AboDfmBy--3" style="edgeStyle=orthogonalEdgeStyle;rounded=0;orthogonalLoop=1;jettySize=auto;html=1;entryX=0.013;entryY=0.889;entryDx=0;entryDy=0;entryPerimeter=0;labelBackgroundColor=#FFFFFF;fontColor=#000000;strokeColor=#000000;fontSize=3;" edge="1" parent="1">
          <mxGeometry relative="1" as="geometry">
            <mxPoint x="190" y="233" as="sourcePoint"/>
            <mxPoint x="511" y="233" as="targetPoint"/>
            <Array as="points">
              <mxPoint x="360" y="233"/>
              <mxPoint x="360" y="233"/>
            </Array>
          </mxGeometry>
        </mxCell>
        <mxCell id="XqUJyj3r2s2AboDfmBy--11" style="edgeStyle=orthogonalEdgeStyle;rounded=0;orthogonalLoop=1;jettySize=auto;html=1;labelBackgroundColor=#FFFFFF;strokeColor=#000000;fontSize=3;fontColor=#000000;" edge="1" parent="1" source="MlHlvLZix1t-NmI1T0BR-1" target="MlHlvLZix1t-NmI1T0BR-2">
          <mxGeometry relative="1" as="geometry"/>
        </mxCell>
        <mxCell id="MlHlvLZix1t-NmI1T0BR-1" value="&lt;span style=&quot;font-size: 3px;&quot;&gt;实施人员&lt;/span&gt;" style="image;html=1;labelBackgroundColor=#FFFFFF;image=img/lib/clip_art/people/Worker_Man_128x128.png;fillColor=#0050ef;strokeColor=#000000;fontColor=#000000;fontSize=3;fontStyle=1" parent="1" vertex="1">
          <mxGeometry x="110" y="160" width="80" height="90" as="geometry"/>
        </mxCell>
        <mxCell id="MlHlvLZix1t-NmI1T0BR-5" style="edgeStyle=orthogonalEdgeStyle;rounded=0;orthogonalLoop=1;jettySize=auto;html=1;exitX=0;exitY=0.75;exitDx=0;exitDy=0;entryX=1;entryY=0.75;entryDx=0;entryDy=0;fillColor=#0050ef;strokeColor=#000000;fontSize=3;fontStyle=1;labelBackgroundColor=#FFFFFF;fontColor=#000000;" parent="1" edge="1">
          <mxGeometry relative="1" as="geometry">
            <mxPoint x="509.8571428571429" y="217.8571428571429" as="sourcePoint"/>
            <mxPoint x="189.8571428571429" y="217.8571428571429" as="targetPoint"/>
          </mxGeometry>
        </mxCell>
        <mxCell id="XqUJyj3r2s2AboDfmBy--6" style="edgeStyle=orthogonalEdgeStyle;rounded=0;orthogonalLoop=1;jettySize=auto;html=1;entryX=1.021;entryY=0.994;entryDx=0;entryDy=0;entryPerimeter=0;labelBackgroundColor=#FFFFFF;fontColor=#000000;strokeColor=#000000;fontSize=3;" edge="1" parent="1">
          <mxGeometry relative="1" as="geometry">
            <mxPoint x="510" y="250.3571428571429" as="sourcePoint"/>
            <mxPoint x="191.57142857142856" y="250.3571428571429" as="targetPoint"/>
            <Array as="points">
              <mxPoint x="450" y="250.5"/>
              <mxPoint x="450" y="250.5"/>
            </Array>
          </mxGeometry>
        </mxCell>
        <mxCell id="XqUJyj3r2s2AboDfmBy--15" style="edgeStyle=orthogonalEdgeStyle;rounded=0;orthogonalLoop=1;jettySize=auto;html=1;entryX=0.582;entryY=0.947;entryDx=0;entryDy=0;entryPerimeter=0;labelBackgroundColor=#FFFFFF;strokeColor=#000000;fontSize=3;fontColor=#000000;" edge="1" parent="1" source="MlHlvLZix1t-NmI1T0BR-2" target="MlHlvLZix1t-NmI1T0BR-6">
          <mxGeometry relative="1" as="geometry"/>
        </mxCell>
        <mxCell id="MlHlvLZix1t-NmI1T0BR-2" value="&lt;span style=&quot;font-size: 3px;&quot;&gt;会基科技客服&lt;/span&gt;" style="image;html=1;labelBackgroundColor=#FFFFFF;image=img/lib/clip_art/people/Worker_Woman_128x128.png;fillColor=#0050ef;strokeColor=#000000;fontColor=#000000;fontSize=3;fontStyle=1" parent="1" vertex="1">
          <mxGeometry x="510" y="160" width="80" height="90" as="geometry"/>
        </mxCell>
        <mxCell id="MlHlvLZix1t-NmI1T0BR-6" value="会基服务器" style="ellipse;shape=cloud;whiteSpace=wrap;html=1;fillColor=#F1FF2E;strokeColor=#000000;fontColor=#000000;fontSize=3;fontStyle=1;labelBackgroundColor=#FFFFFF;" parent="1" vertex="1">
          <mxGeometry x="480" y="-22" width="120" height="87" as="geometry"/>
        </mxCell>
        <mxCell id="MlHlvLZix1t-NmI1T0BR-10" value="2、客服回复：服务器地址、授权码" style="text;html=1;align=center;verticalAlign=middle;resizable=0;points=[];;autosize=1;fillColor=#ffffff;strokeColor=none;fontColor=#000000;fontSize=3;fontStyle=0;labelBackgroundColor=#FFFFFF;" parent="1" vertex="1">
          <mxGeometry x="235" y="212" width="200" height="10" as="geometry"/>
        </mxCell>
        <mxCell id="MlHlvLZix1t-NmI1T0BR-16" value="设备配置" style="text;html=1;align=center;verticalAlign=middle;resizable=0;points=[];;autosize=1;fillColor=#FFFFFF;strokeColor=#000000;fontColor=#000000;fontSize=3;fontStyle=1;labelBackgroundColor=#FFFFFF;" parent="1" vertex="1">
          <mxGeometry x="160" y="125" width="60" height="10" as="geometry"/>
        </mxCell>
        <mxCell id="MlHlvLZix1t-NmI1T0BR-17" value="批量生成&lt;br style=&quot;font-size: 3px;&quot;&gt;授权码" style="text;html=1;align=center;verticalAlign=middle;resizable=0;points=[];;autosize=1;fillColor=#FFFFFF;strokeColor=#000000;fontColor=#000000;fontSize=3;fontStyle=1;labelBackgroundColor=#FFFFFF;" parent="1" vertex="1">
          <mxGeometry x="480" y="110" width="60" height="10" as="geometry"/>
        </mxCell>
        <mxCell id="XqUJyj3r2s2AboDfmBy--9" style="edgeStyle=orthogonalEdgeStyle;rounded=0;orthogonalLoop=1;jettySize=auto;html=1;entryX=0.07;entryY=0.4;entryDx=0;entryDy=0;entryPerimeter=0;labelBackgroundColor=#FFFFFF;strokeColor=#000000;fontColor=#000000;fontSize=3;" edge="1" parent="1" source="MlHlvLZix1t-NmI1T0BR-20" target="MlHlvLZix1t-NmI1T0BR-6">
          <mxGeometry relative="1" as="geometry"/>
        </mxCell>
        <mxCell id="MlHlvLZix1t-NmI1T0BR-20" value="&lt;span style=&quot;font-size: 3px;&quot;&gt;厂商硬件设备&lt;/span&gt;" style="outlineConnect=0;dashed=0;verticalLabelPosition=bottom;verticalAlign=top;align=center;html=1;shape=mxgraph.aws3.mobile_client;fillColor=#FFD966;strokeColor=#000000;fontColor=#000000;fontSize=3;fontStyle=1;labelBackgroundColor=#FFFFFF;" parent="1" vertex="1">
          <mxGeometry x="130" y="-19" width="40.5" height="63" as="geometry"/>
        </mxCell>
        <mxCell id="MlHlvLZix1t-NmI1T0BR-22" value="数据交互" style="text;html=1;align=center;verticalAlign=middle;resizable=0;points=[];;autosize=1;fillColor=#FFFFFF;strokeColor=#000000;fontColor=#000000;fontSize=3;fontStyle=1;labelBackgroundColor=#FFFFFF;" parent="1" vertex="1">
          <mxGeometry x="295" y="15.5" width="60" height="10" as="geometry"/>
        </mxCell>
        <mxCell id="MlHlvLZix1t-NmI1T0BR-23" value="应用场景示意图" style="rounded=1;whiteSpace=wrap;html=1;fillColor=#52D2F2;strokeColor=#000000;fontColor=#000000;fontSize=27;fontStyle=1;labelBackgroundColor=#52D2F2;" parent="1" vertex="1">
          <mxGeometry x="110" y="-62" width="490" height="40" as="geometry"/>
        </mxCell>
        <mxCell id="XqUJyj3r2s2AboDfmBy--4" value="3、提交授权码、设备编号、项目名称" style="text;html=1;align=center;verticalAlign=middle;resizable=0;points=[];;autosize=1;labelBackgroundColor=#FFFFFF;fontColor=#000000;strokeColor=none;fontSize=3;fontStyle=0" vertex="1" parent="1">
          <mxGeometry x="236" y="228" width="210" height="10" as="geometry"/>
        </mxCell>
        <mxCell id="XqUJyj3r2s2AboDfmBy--7" value="4、客服回复：绑定完成" style="text;html=1;align=center;verticalAlign=middle;resizable=0;points=[];;autosize=1;labelBackgroundColor=#FFFFFF;fontColor=#000000;strokeColor=none;fontSize=3;fontStyle=0" vertex="1" parent="1">
          <mxGeometry x="236" y="245" width="140" height="10" as="geometry"/>
        </mxCell>
        <mxCell id="XqUJyj3r2s2AboDfmBy--12" value="1、获取授权码（批量/单个）" style="text;align=center;verticalAlign=middle;resizable=0;points=[];;autosize=1;fillColor=#FFFFFF;strokeColor=none;fontColor=#000000;fontSize=3;fontStyle=0;labelBackgroundColor=#FFFFFF;html=1;" vertex="1" parent="1">
          <mxGeometry x="233" y="195" width="170" height="10" as="geometry"/>
        </mxCell>
      </root>
    </mxGraphModel>
  </diagram>
</mxfile>
